<svg width="73" height="40" viewBox="0 0 73 40" fill="none" xmlns="http://www.w3.org/2000/svg">
<path d="M4.87202 9.01926H10.2616C10.3704 9.01926 10.4748 9.06265 10.5517 9.13987C10.6286 9.2171 10.6719 9.32185 10.6719 9.43106C10.6719 9.52099 10.6427 9.60848 10.5886 9.6802L0.50516 23.0624C0.17737 23.4971 -8.68138e-06 24.0274 3.18675e-10 24.5726C3.18675e-10 25.2368 0.26288 25.8739 0.73081 26.3435C1.19874 26.8132 1.83339 27.0771 2.49514 27.0771H15.1241C15.4095 27.0772 15.692 27.0209 15.9556 26.9113C16.2192 26.8018 16.4588 26.6411 16.6605 26.4386C16.8623 26.2361 17.0223 25.9957 17.1314 25.7311C17.2406 25.4665 17.2967 25.1828 17.2966 24.8965C17.2968 24.6098 17.2407 24.3259 17.1314 24.0611C17.0222 23.7963 16.862 23.5556 16.66 23.353C16.458 23.1504 16.2182 22.9898 15.9543 22.8803C15.6904 22.7708 15.4075 22.7147 15.1219 22.7151H6.54956C6.52105 22.7149 6.49313 22.7069 6.46886 22.6919C6.44458 22.6769 6.42489 22.6554 6.41193 22.6299C6.39897 22.6044 6.39324 22.5759 6.39537 22.5473C6.3975 22.5188 6.4074 22.4914 6.424 22.4681L16.1695 9.11671C16.5172 8.64011 16.7044 8.06462 16.7039 7.47389C16.7039 6.73774 16.4125 6.03175 15.8939 5.51121C15.3754 4.99068 14.672 4.69824 13.9386 4.69824H2.39221C2.11031 4.69824 1.83118 4.75402 1.57078 4.86239C1.31038 4.97077 1.07381 5.1296 0.874616 5.32982C0.675421 5.53004 0.517501 5.76771 0.40989 6.02924C0.302278 6.29077 0.247086 6.57103 0.24747 6.85399C0.247464 7.4235 0.472201 7.96982 0.872505 8.37342C1.27281 8.77701 1.81608 9.00502 2.38345 9.00753L4.87202 9.01926Z" fill="#336699"/>
<path d="M18.6654 7.64291V24.3166C18.6653 24.6791 18.7364 25.0381 18.8745 25.373C19.0127 25.708 19.2153 26.0123 19.4706 26.2686C19.726 26.525 20.0292 26.7283 20.3629 26.8669C20.6965 27.0056 21.0542 27.077 21.4153 27.0769H29.2847C29.8655 27.0769 30.4226 26.8453 30.8333 26.433C31.244 26.0208 31.4747 25.4616 31.4747 24.8786C31.4747 24.2953 31.2441 23.7358 30.8335 23.3229C30.4229 22.9101 29.8659 22.6777 29.2847 22.6767H23.4951V18.2069H28.5781C28.8772 18.2069 29.1735 18.1478 29.4498 18.0329C29.7262 17.9179 29.9773 17.7495 30.1888 17.5371C30.4003 17.3247 30.5681 17.0726 30.6825 16.7951C30.7969 16.5177 30.8558 16.2203 30.8557 15.92C30.8557 15.3137 30.6157 14.7322 30.1886 14.3035C29.7614 13.8747 29.1821 13.6339 28.5781 13.6339H23.4951V9.18828H29.2424C29.8354 9.18828 30.4041 8.95182 30.8235 8.53091C31.2428 8.11 31.4784 7.53912 31.4784 6.94387C31.4782 6.34874 31.2425 5.77806 30.8232 5.35731C30.4039 4.93656 29.8353 4.7002 29.2424 4.7002H21.5971C21.2121 4.7002 20.8309 4.77631 20.4752 4.9242C20.1195 5.07208 19.7963 5.28884 19.5241 5.5621C19.2518 5.83535 19.0359 6.15976 18.8886 6.51678C18.7412 6.87381 18.6654 7.25647 18.6654 7.64291Z" fill="#336699"/>
<path d="M57.0181 12.0214C56.6612 12.7959 55.3785 16.0017 56.9634 19.1393C57.0044 19.2207 57.0229 19.3117 57.0168 19.4027C57.0108 19.4937 56.9805 19.5814 56.9291 19.6566L53.7813 24.2297C53.7813 24.2297 51.2446 21.8849 51.0226 16.1497C50.938 13.9727 51.3679 11.7994 52.3527 9.85831C53.0258 8.53277 54.0251 7.1552 55.4917 6.22461C55.4917 6.22461 55.7618 9.59525 57.0028 11.6807C57.0327 11.7319 57.0497 11.7898 57.0524 11.8491C57.055 11.9085 57.0433 11.9676 57.0181 12.0214Z" fill="#336699"/>
<path d="M67.0906 12.1962C67.4483 12.9707 68.5557 15.942 67.1139 18.9968C67.074 19.0785 67.0561 19.1693 67.0621 19.2601C67.0681 19.3509 67.0978 19.4385 67.1483 19.5141L70.2989 24.0872C70.2989 24.0872 72.7707 21.8839 72.9934 16.1501C73.0773 13.9731 72.6473 11.7998 71.6626 9.85872C70.9866 8.53318 70.0843 7.32781 68.6199 6.39941C68.6199 6.39941 68.3498 9.77006 67.1081 11.8562C67.078 11.9072 67.0607 11.9648 67.0576 12.024C67.0546 12.0832 67.0659 12.1423 67.0906 12.1962Z" fill="#336699"/>
<path d="M60.8893 23.2458L58.7519 26.9177C58.7288 26.9585 58.7157 27.0041 58.7135 27.051C58.7113 27.0978 58.7201 27.1446 58.7392 27.1874C58.7583 27.2302 58.7872 27.2678 58.8235 27.2974C58.8598 27.3269 58.9025 27.3474 58.9482 27.3573C59.941 27.5669 62.6201 28.0102 65.1686 27.3698C65.2131 27.3582 65.2544 27.3365 65.2891 27.3063C65.3239 27.2761 65.3512 27.2382 65.369 27.1956C65.3867 27.153 65.3944 27.1069 65.3914 27.0608C65.3885 27.0148 65.3749 26.97 65.3518 26.9301L63.1881 23.2451C63.1881 23.2451 62.2522 23.4312 60.8893 23.2458Z" fill="#336699"/>
<path d="M60.425 8.84972C60.425 8.84972 61.8565 8.47895 63.7575 8.84972L65.2102 5.62563C65.2791 5.47333 65.3088 5.30611 65.2966 5.13928C65.2844 4.97246 65.2307 4.81137 65.1404 4.67079C65.0501 4.5302 64.9261 4.41461 64.7798 4.33461C64.6334 4.25461 64.4694 4.21276 64.3028 4.21289H60.0155C59.834 4.21266 59.6553 4.25821 59.4959 4.34536C59.3365 4.43251 59.2015 4.55846 59.1032 4.71165C59.005 4.86485 58.9466 5.04036 58.9336 5.22208C58.9205 5.40381 58.9532 5.58591 59.0285 5.75166L60.425 8.84972Z" fill="#336699"/>
<path d="M58.7109 3.93853C58.7109 3.93853 60.3469 2.07516 62.1157 2.07516C63.8844 2.07516 65.3934 3.93853 65.3934 3.93853C65.3934 3.93853 65.7503 1.81723 64.1305 0.641167C63.5191 0.198206 62.7775 -0.0262694 62.0242 0.00361762C61.2708 0.0335046 60.5491 0.316028 59.9746 0.806035C59.2986 1.38784 58.7175 2.35067 58.7109 3.93853Z" fill="#FD99CB"/>
<path d="M56.1647 29.8078L53.3389 26.4445L64.4349 9.68503C65.3834 8.26832 65.9703 6.63921 66.1438 4.94122C66.2518 3.81865 66.1854 2.58836 65.6948 1.52441C65.6948 1.52441 69.3222 3.93809 67.2556 9.35749C65.189 14.7769 56.1647 29.8078 56.1647 29.8078Z" fill="#FD99CB"/>
<path d="M64.348 16.8525L62.5339 20.2393L67.8951 29.8083L71.0968 26.4449L64.348 16.8525Z" fill="#FD99CB"/>
<path d="M59.7607 15.5287L61.7536 12.5757L59.8439 9.65352C58.8883 8.20825 58.2957 6.55217 58.1167 4.82691C57.9999 3.63839 58.089 2.38832 58.7109 1.52441C58.7109 1.52441 56.018 2.81991 56.4005 6.8493C56.5022 7.86294 56.7685 8.85303 57.1889 9.78029L59.7607 15.5287Z" fill="#FD99CB"/>
<path d="M11.1164 36.725L10.6915 36.5051C11.1069 35.6991 12.3596 35.4111 12.4121 35.3994L12.5173 35.8684C12.2158 35.9351 11.3763 36.2223 11.1164 36.725Z" fill="#346794"/>
<path d="M44.6928 36.725L44.2679 36.5051C44.6833 35.6991 45.936 35.4111 45.9893 35.3994L46.0937 35.8684C45.7922 35.9351 44.9527 36.2223 44.6928 36.725Z" fill="#346794"/>
<path d="M59.3358 34.0322H58.8569V34.7628H59.3358V34.0322Z" fill="#346794"/>
<path d="M56.9787 36.725L56.5531 36.5051C56.9692 35.6991 58.2212 35.4111 58.2744 35.3994L58.3788 35.8684C58.0773 35.9351 57.2378 36.2223 56.9787 36.725Z" fill="#346794"/>
<path d="M55.9012 35.5273H53.8236V36.008H55.9012V35.5273Z" fill="#346794"/>
<path d="M4.91437 39.9358H1.47388L4.30044 35.9768H1.83523V35.4961H5.23265L2.40682 39.4551H4.91437V39.9358Z" fill="#346794"/>
<path d="M11.1434 35.6328H10.6646V39.8388H11.1434V35.6328Z" fill="#346794"/>
<path d="M44.7198 35.6328H44.241V39.8388H44.7198V35.6328Z" fill="#346794"/>
<path d="M57.005 35.6328H56.5261V39.8388H57.005V35.6328Z" fill="#346794"/>
<path d="M59.3358 35.6328H58.8569V39.8388H59.3358V35.6328Z" fill="#346794"/>
<path d="M47.3617 39.1084H46.8828V39.839H47.3617V39.1084Z" fill="#346794"/>
<path d="M20.4327 40.0001C20.0231 39.9999 19.6211 39.8897 19.2683 39.681C18.9155 39.4722 18.6248 39.1725 18.4263 38.813C18.2278 38.4534 18.1288 38.0471 18.1395 37.6362C18.1502 37.2252 18.2702 36.8247 18.4871 36.476C18.7041 36.1273 19.01 35.8433 19.3732 35.6533C19.7363 35.4634 20.1435 35.3744 20.5525 35.3957C20.9615 35.4169 21.3574 35.5476 21.699 35.7743C22.0407 36.0009 22.3158 36.3151 22.4956 36.6844L22.0649 36.8962C21.8875 36.5319 21.5942 36.2374 21.2313 36.0592C20.8684 35.8811 20.4567 35.8294 20.0613 35.9125C19.6659 35.9956 19.3093 36.2086 19.0481 36.5178C18.7868 36.8271 18.6357 37.2149 18.6187 37.6201C18.6016 38.0252 18.7196 38.4245 18.954 38.7547C19.1884 39.085 19.5258 39.3274 19.9128 39.4436C20.2999 39.5597 20.7144 39.5431 21.091 39.3963C21.4675 39.2494 21.7846 38.9808 21.9919 38.6328L22.4022 38.8805C22.1973 39.2211 21.9085 39.5031 21.5635 39.6992C21.2186 39.8953 20.8291 39.999 20.4327 40.0001Z" fill="#346794"/>
<path d="M35.9977 40.0001C35.5882 39.9999 35.1862 39.8897 34.8334 39.681C34.4806 39.4722 34.1899 39.1725 33.9914 38.813C33.7929 38.4534 33.6938 38.0471 33.7045 37.6362C33.7152 37.2252 33.8353 36.8247 34.0522 36.476C34.2691 36.1273 34.575 35.8433 34.9382 35.6533C35.3014 35.4634 35.7086 35.3744 36.1176 35.3957C36.5266 35.4169 36.9224 35.5476 37.2641 35.7743C37.6058 36.0009 37.8808 36.3151 38.0607 36.6844L37.6307 36.8962C37.4533 36.5317 37.1599 36.237 36.7968 36.0587C36.4338 35.8804 36.0219 35.8287 35.6263 35.9117C35.2307 35.9948 34.874 36.2078 34.6125 36.5172C34.3511 36.8266 34.1999 37.2147 34.1829 37.62C34.1659 38.0253 34.2839 38.4248 34.5185 38.7552C34.753 39.0856 35.0906 39.3281 35.4778 39.4443C35.865 39.5605 36.2798 39.5438 36.6565 39.3968C37.0332 39.2498 37.3503 38.981 37.5577 38.6328L37.9687 38.8805C37.7636 39.2213 37.4745 39.5033 37.1293 39.6994C36.7841 39.8955 36.3944 39.9991 35.9977 40.0001Z" fill="#346794"/>
<path d="M62.5428 40.0001C62.1332 40 61.7311 39.89 61.3782 39.6813C61.0254 39.4726 60.7345 39.173 60.5359 38.8135C60.3373 38.4539 60.2382 38.0476 60.2488 37.6366C60.2594 37.2257 60.3794 36.825 60.5963 36.4763C60.8132 36.1276 61.1191 35.8435 61.4823 35.6535C61.8455 35.4634 62.2527 35.3744 62.6617 35.3957C63.0707 35.4169 63.4666 35.5476 63.8083 35.7742C64.15 36.0008 64.4251 36.3151 64.605 36.6844L64.1751 36.8962C63.9976 36.5319 63.7043 36.2374 63.3414 36.0592C62.9785 35.8811 62.5668 35.8294 62.1714 35.9125C61.776 35.9956 61.4194 36.2086 61.1582 36.5178C60.8969 36.8271 60.7458 37.2149 60.7288 37.6201C60.7117 38.0252 60.8297 38.4245 61.0641 38.7547C61.2985 39.085 61.6359 39.3274 62.0229 39.4436C62.41 39.5597 62.8245 39.5431 63.2011 39.3963C63.5776 39.2494 63.8947 38.9808 64.1021 38.6328L64.5123 38.8805C64.3074 39.2211 64.0185 39.503 63.6736 39.6991C63.3286 39.8952 62.9392 39.9989 62.5428 40.0001Z" fill="#346794"/>
<path d="M25.666 40.0001C24.352 40.0001 23.2775 38.9661 23.2775 37.6963C23.2775 36.4264 24.3484 35.3918 25.666 35.3918C26.1077 35.3862 26.5422 35.5037 26.9212 35.7312C27.3003 35.9588 27.609 36.2875 27.813 36.6807L27.3859 36.9005C27.222 36.5869 26.9747 36.325 26.6715 36.1439C26.3683 35.9628 26.021 35.8696 25.6682 35.8747C24.6148 35.8747 23.7585 36.6924 23.7585 37.6978C23.7585 38.7031 24.6148 39.5208 25.6682 39.5208C25.9943 39.5224 26.3155 39.4416 26.6022 39.2859C26.889 39.1302 27.1322 38.9046 27.3093 38.6298L27.7144 38.8855C27.496 39.2312 27.1931 39.5151 26.8346 39.7101C26.4761 39.9052 26.0738 40.005 25.666 40.0001Z" fill="#346794"/>
<path d="M15.1182 40.0001C14.6643 40.0001 14.2206 39.865 13.8431 39.6118C13.4657 39.3587 13.1715 38.9989 12.9978 38.578C12.8241 38.157 12.7787 37.6938 12.8672 37.2469C12.9558 36.8 13.1744 36.3895 13.4953 36.0673C13.8163 35.7451 14.2253 35.5257 14.6705 35.4368C15.1157 35.348 15.5772 35.3936 15.9965 35.5679C16.4159 35.7423 16.7744 36.0376 17.0266 36.4164C17.2788 36.7953 17.4134 37.2407 17.4134 37.6963C17.4126 38.3071 17.1705 38.8926 16.7403 39.3245C16.31 39.7564 15.7267 39.9993 15.1182 40.0001ZM15.1182 35.8733C14.7591 35.8736 14.4081 35.9807 14.1096 36.1812C13.8111 36.3817 13.5785 36.6665 13.4413 36.9997C13.3041 37.3328 13.2683 37.6994 13.3385 38.0529C13.4088 38.4064 13.5819 38.7312 13.8359 38.986C14.09 39.2408 14.4136 39.4143 14.7659 39.4845C15.1182 39.5547 15.4833 39.5185 15.8151 39.3805C16.1469 39.2425 16.4304 39.0088 16.63 38.709C16.8295 38.4093 16.9359 38.0568 16.9359 37.6963C16.9354 37.2128 16.7436 36.7492 16.4028 36.4074C16.062 36.0655 15.6 35.8735 15.1182 35.8733Z" fill="#346794"/>
<path d="M41.0924 40.0001C40.6409 40 40.1994 39.8661 39.8232 39.6153C39.4471 39.3645 39.153 39.0079 38.9778 38.5902C38.8026 38.1724 38.754 37.712 38.8382 37.2667C38.9224 36.8214 39.1357 36.4109 39.4512 36.0866C39.7667 35.7624 40.1705 35.5387 40.6121 35.4437C41.0536 35.3487 41.5133 35.3866 41.9335 35.5526C42.3537 35.7185 42.7158 36.0052 42.9744 36.3768C43.2331 36.7484 43.3768 37.1882 43.3876 37.6414L43.3927 37.8883L39.2842 37.8649C39.3211 38.2606 39.4858 38.6335 39.7532 38.9267C40.0206 39.2198 40.3762 39.4173 40.7657 39.489C41.1552 39.5606 41.5574 39.5026 41.911 39.3237C42.2647 39.1448 42.5504 38.8549 42.7247 38.498L43.1547 38.7097C42.967 39.098 42.6738 39.4251 42.3089 39.6534C41.9441 39.8817 41.5224 40.0019 41.0924 40.0001ZM39.3032 37.3842L42.8853 37.4047C42.8165 36.9792 42.5997 36.5919 42.2734 36.3116C41.9471 36.0314 41.5324 35.8762 41.1029 35.8738C40.6734 35.8713 40.257 36.0217 39.9275 36.2982C39.5981 36.5747 39.3769 36.9595 39.3032 37.3842Z" fill="#346794"/>
<path d="M7.62198 40.0001C7.17038 40.0001 6.7288 39.8664 6.35256 39.6157C5.97631 39.365 5.6821 39.0084 5.50679 38.5907C5.33147 38.1729 5.28283 37.7125 5.36696 37.2672C5.45109 36.8218 5.66424 36.4113 5.97974 36.0869C6.29523 35.7626 6.69904 35.5389 7.14061 35.4438C7.58217 35.3487 8.04186 35.3866 8.46211 35.5525C8.88237 35.7184 9.24451 36.0052 9.50319 36.3767C9.76187 36.7483 9.9056 37.1882 9.91637 37.6414L9.92221 37.8883L5.81377 37.8649C5.85036 38.2607 6.01486 38.6337 6.28221 38.927C6.54956 39.2204 6.9051 39.4179 7.29468 39.4896C7.68425 39.5613 8.08649 39.5032 8.44012 39.3242C8.79376 39.1452 9.0794 38.855 9.25353 38.498L9.6835 38.7097C9.49582 39.0979 9.20275 39.4249 8.83804 39.6532C8.47332 39.8815 8.05179 40.0017 7.62198 40.0001ZM5.83202 37.3842L9.41486 37.4047C9.3465 36.9787 9.12984 36.5909 8.80341 36.3102C8.47698 36.0295 8.06194 35.874 7.6321 35.8716C7.20225 35.8691 6.78547 36.0198 6.45587 36.2967C6.12627 36.5737 5.90522 36.959 5.83202 37.3842Z" fill="#346794"/>
<path d="M27.7838 35.6338H27.3049V39.9336H27.7838V35.6338Z" fill="#346794"/>
<path d="M50.8905 40C49.5765 40 48.502 38.9661 48.502 37.6963C48.502 36.4264 49.5736 35.3918 50.8905 35.3918C51.3317 35.3863 51.7658 35.5038 52.1445 35.7313C52.5231 35.9587 52.8315 36.2871 53.0353 36.68L52.6089 36.8998C52.445 36.586 52.1976 36.3241 51.8942 36.143C51.5909 35.9619 51.2434 35.8687 50.8905 35.8739C49.8379 35.8739 48.9808 36.6917 48.9808 37.697C48.9808 38.7023 49.8379 39.5201 50.8905 39.5201C51.2167 39.5218 51.538 39.4411 51.8249 39.2854C52.1119 39.1297 52.3551 38.904 52.5323 38.6291L52.9374 38.8848C52.7192 39.2303 52.4166 39.5142 52.0583 39.7093C51.7001 39.9045 51.2981 40.0046 50.8905 40Z" fill="#346794"/>
<path d="M53.0089 35.6338H52.53V39.8383H53.0089V35.6338Z" fill="#346794"/>
<path d="M67.7791 40C66.4651 40 65.3905 38.9661 65.3905 37.6963C65.3905 36.4264 66.4621 35.3918 67.7791 35.3918C68.2203 35.3865 68.6543 35.5041 69.0329 35.7315C69.4115 35.9589 69.7199 36.2872 69.9238 36.6799L69.4975 36.8998C69.3335 36.586 69.0861 36.3241 68.7828 36.143C68.4794 35.9619 68.132 35.8687 67.7791 35.8739C66.7264 35.8739 65.8694 36.6917 65.8694 37.697C65.8694 38.7023 66.7264 39.5201 67.7791 39.5201C68.1057 39.5222 68.4275 39.4415 68.7149 39.2857C69.0022 39.1298 69.2458 38.9037 69.423 38.6283L69.8289 38.884C69.6104 39.2301 69.3074 39.5143 68.9486 39.7096C68.5898 39.905 68.1872 40.0049 67.7791 40Z" fill="#346794"/>
<path d="M69.8975 35.6338H69.4186V39.8383H69.8975V35.6338Z" fill="#346794"/>
<path d="M29.3868 35.6338H28.908V39.8383H29.3868V35.6338Z" fill="#346794"/>
<path d="M54.9281 39.8379H54.4492V35.6385C54.4492 35.5455 54.4266 34.6896 54.9354 34.1525C55.2019 33.8704 55.5588 33.7275 55.9961 33.7275V34.209C55.6917 34.209 55.4588 34.2983 55.2836 34.4823C54.8982 34.8875 54.9274 35.6144 54.9274 35.6217V39.8379H54.9281Z" fill="#346794"/>
<path d="M32.7405 39.8376H32.2616V37.3148C32.2631 37.0714 32.1996 36.8321 32.0778 36.6217C31.956 36.4112 31.7802 36.2374 31.5689 36.1182C30.798 35.6895 30.0468 35.9313 29.3358 36.837L28.9591 36.5395C29.454 35.9101 30.4804 34.9634 31.801 35.6976C32.0872 35.8584 32.3252 36.0932 32.4905 36.3776C32.6557 36.662 32.742 36.9856 32.7405 37.3148V39.8376Z" fill="#346794"/>
<path d="M49.8633 23.9383C49.8179 23.8782 49.7692 23.8207 49.7173 23.7661L44.4942 18.0506L44.4628 17.622C45.843 17.622 47.1667 17.0716 48.1427 16.092C49.1187 15.1123 49.667 13.7836 49.667 12.3982V11.812C49.667 10.8779 49.4837 9.95302 49.1276 9.09006C48.7715 8.2271 48.2495 7.44299 47.5915 6.78251C46.9335 6.12202 46.1523 5.5981 45.2926 5.24065C44.4329 4.8832 43.5114 4.69922 42.5809 4.69922H36.7409C35.9408 4.6998 35.1737 5.01933 34.6083 5.58753C34.043 6.15572 33.7256 6.92607 33.726 7.72913V24.6725C33.7259 24.9883 33.7878 25.3011 33.9081 25.5929C34.0285 25.8847 34.205 26.1499 34.4275 26.3732C34.65 26.5965 34.9141 26.7737 35.2048 26.8945C35.4956 27.0153 35.8072 27.0774 36.1218 27.0774H36.1839C36.5091 27.0789 36.8315 27.0159 37.1325 26.8921C37.4334 26.7683 37.7071 26.586 37.9377 26.3558C38.1683 26.1255 38.3513 25.8518 38.4763 25.5504C38.6013 25.2489 38.6657 24.9257 38.6659 24.5992C38.6659 21.9276 38.6659 18.0536 38.6659 18.0536H39.0776L45.7359 26.6384C45.9823 26.9565 46.2978 27.2139 46.6583 27.3909C47.0189 27.568 47.415 27.66 47.8164 27.6599C49.5779 27.6599 50.881 25.3532 49.8633 23.9383ZM42.1553 14.6719H38.533V9.0195H42.1553C42.9015 9.02028 43.6169 9.31838 44.1443 9.84832C44.6717 10.3782 44.968 11.0967 44.968 11.8457C44.968 12.5948 44.6717 13.3132 44.1443 13.8431C43.6169 14.373 42.9015 14.6711 42.1553 14.6719Z" fill="#336699"/>
</svg>
