<svg width="73" height="40" viewBox="0 0 73 40" fill="none" xmlns="http://www.w3.org/2000/svg">
<g clip-path="url(#clip0_1887_2617)">
<path d="M4.87202 9.0194H10.2616C10.3704 9.0194 10.4748 9.06279 10.5517 9.14002C10.6286 9.21724 10.6719 9.32199 10.6719 9.43121C10.6719 9.52113 10.6427 9.60862 10.5886 9.68034L0.50516 23.0625C0.17737 23.4972 -8.68138e-06 24.0275 3.18675e-10 24.5727C3.18675e-10 25.237 0.26288 25.874 0.73081 26.3437C1.19874 26.8134 1.83339 27.0773 2.49514 27.0773H15.1241C15.4095 27.0773 15.692 27.021 15.9556 26.9115C16.2192 26.8019 16.4588 26.6413 16.6605 26.4388C16.8623 26.2363 17.0223 25.9958 17.1314 25.7312C17.2406 25.4666 17.2967 25.183 17.2966 24.8966C17.2968 24.6099 17.2407 24.3261 17.1314 24.0612C17.0222 23.7964 16.862 23.5558 16.66 23.3532C16.458 23.1505 16.2182 22.9899 15.9543 22.8804C15.6904 22.771 15.4075 22.7148 15.1219 22.7152H6.54956C6.52105 22.715 6.49313 22.707 6.46886 22.692C6.44458 22.677 6.42489 22.6556 6.41193 22.6301C6.39897 22.6046 6.39324 22.576 6.39537 22.5475C6.3975 22.5189 6.4074 22.4915 6.424 22.4683L16.1695 9.11686C16.5172 8.64025 16.7044 8.06476 16.7039 7.47403C16.7039 6.73789 16.4125 6.03189 15.8939 5.51135C15.3754 4.99082 14.672 4.69838 13.9386 4.69838H2.39221C2.11031 4.69838 1.83118 4.75416 1.57078 4.86254C1.31038 4.97091 1.07381 5.12975 0.874616 5.32996C0.675421 5.53018 0.517501 5.76785 0.40989 6.02938C0.302278 6.29091 0.247086 6.57117 0.24747 6.85413C0.247464 7.42364 0.472201 7.96996 0.872505 8.37356C1.27281 8.77715 1.81608 9.00516 2.38345 9.00768L4.87202 9.0194Z" fill="white"/>
<path d="M18.6654 7.6433V24.317C18.6653 24.6795 18.7364 25.0385 18.8745 25.3734C19.0127 25.7083 19.2153 26.0127 19.4706 26.269C19.726 26.5253 20.0292 26.7287 20.3629 26.8673C20.6965 27.006 21.0542 27.0773 21.4153 27.0772H29.2847C29.8655 27.0772 30.4226 26.8456 30.8333 26.4334C31.244 26.0211 31.4747 25.462 31.4747 24.879C31.4747 24.2957 31.2441 23.7361 30.8335 23.3233C30.4229 22.9105 29.8659 22.6781 29.2847 22.6771H23.4951V18.2073H28.5781C28.8772 18.2073 29.1735 18.1482 29.4498 18.0332C29.7262 17.9183 29.9773 17.7498 30.1888 17.5375C30.4003 17.3251 30.5681 17.073 30.6825 16.7955C30.7969 16.5181 30.8558 16.2207 30.8557 15.9204C30.8557 15.3141 30.6157 14.7326 30.1886 14.3039C29.7614 13.8751 29.1821 13.6342 28.5781 13.6342H23.4951V9.18866H29.2424C29.8354 9.18866 30.4041 8.9522 30.8235 8.53129C31.2428 8.11038 31.4784 7.53951 31.4784 6.94426C31.4782 6.34913 31.2425 5.77844 30.8232 5.35769C30.4039 4.93694 29.8353 4.70058 29.2424 4.70058H21.5971C21.2121 4.70058 20.8309 4.7767 20.4752 4.92458C20.1195 5.07247 19.7963 5.28923 19.5241 5.56248C19.2518 5.83574 19.0359 6.16014 18.8886 6.51717C18.7412 6.8742 18.6654 7.25685 18.6654 7.6433Z" fill="white"/>
<path d="M57.0181 12.0215C56.6612 12.796 55.3785 16.0018 56.9634 19.1394C57.0044 19.2208 57.0229 19.3117 57.0168 19.4028C57.0108 19.4938 56.9805 19.5815 56.9291 19.6567L53.7813 24.2298C53.7813 24.2298 51.2446 21.885 51.0226 16.1498C50.938 13.9728 51.3679 11.7994 52.3527 9.8584C53.0258 8.53285 54.0251 7.15529 55.4917 6.2247C55.4917 6.2247 55.7618 9.59534 57.0028 11.6807C57.0327 11.732 57.0497 11.7898 57.0524 11.8492C57.055 11.9086 57.0433 11.9677 57.0181 12.0215Z" fill="white"/>
<path d="M67.0906 12.1959C67.4483 12.9704 68.5557 15.9417 67.1139 18.9965C67.074 19.0782 67.0561 19.169 67.0621 19.2598C67.0681 19.3506 67.0978 19.4382 67.1483 19.5138L70.2989 24.0869C70.2989 24.0869 72.7707 21.8835 72.9934 16.1498C73.0773 13.9728 72.6473 11.7994 71.6626 9.8584C70.9866 8.53286 70.0843 7.32749 68.6199 6.39909C68.6199 6.39909 68.3498 9.76974 67.1081 11.8559C67.078 11.9069 67.0607 11.9645 67.0576 12.0237C67.0546 12.0829 67.0659 12.142 67.0906 12.1959Z" fill="white"/>
<path d="M60.8893 23.2457L58.7519 26.9175C58.7288 26.9583 58.7157 27.004 58.7135 27.0508C58.7113 27.0977 58.7201 27.1444 58.7392 27.1872C58.7583 27.23 58.7872 27.2677 58.8235 27.2972C58.8598 27.3267 58.9025 27.3473 58.9482 27.3572C59.941 27.5667 62.6201 28.01 65.1686 27.3696C65.2131 27.3581 65.2544 27.3364 65.2891 27.3062C65.3239 27.276 65.3512 27.2381 65.369 27.1955C65.3867 27.1529 65.3944 27.1068 65.3914 27.0607C65.3885 27.0146 65.3749 26.9699 65.3518 26.93L63.1881 23.245C63.1881 23.245 62.2522 23.4311 60.8893 23.2457Z" fill="white"/>
<path d="M60.425 8.85013C60.425 8.85013 61.8565 8.47936 63.7575 8.85013L65.2102 5.62604C65.2791 5.47374 65.3088 5.30652 65.2966 5.13969C65.2844 4.97287 65.2307 4.81179 65.1404 4.6712C65.0501 4.53062 64.9261 4.41503 64.7798 4.33503C64.6334 4.25503 64.4694 4.21317 64.3028 4.2133H60.0155C59.834 4.21307 59.6553 4.25862 59.4959 4.34577C59.3365 4.43292 59.2015 4.55888 59.1032 4.71207C59.005 4.86526 58.9466 5.04077 58.9336 5.2225C58.9205 5.40422 58.9532 5.58632 59.0285 5.75207L60.425 8.85013Z" fill="white"/>
<path d="M58.7109 3.93852C58.7109 3.93852 60.3469 2.07514 62.1157 2.07514C63.8844 2.07514 65.3934 3.93852 65.3934 3.93852C65.3934 3.93852 65.7503 1.81722 64.1305 0.641156C63.5191 0.198194 62.7775 -0.0262808 62.0242 0.00360618C61.2708 0.0334931 60.5491 0.316017 59.9746 0.806024C59.2986 1.38783 58.7175 2.35066 58.7109 3.93852Z" fill="#FD99CB"/>
<path d="M56.1647 29.8082L53.3389 26.4449L64.4349 9.68547C65.3834 8.26875 65.9703 6.63965 66.1438 4.94165C66.2518 3.81908 66.1854 2.5888 65.6948 1.52485C65.6948 1.52485 69.3222 3.93852 67.2556 9.35793C65.189 14.7773 56.1647 29.8082 56.1647 29.8082Z" fill="#FD99CB"/>
<path d="M64.348 16.8525L62.5339 20.2392L67.8951 29.8082L71.0968 26.4449L64.348 16.8525Z" fill="#FD99CB"/>
<path d="M59.7607 15.5291L61.7536 12.5762L59.8439 9.65396C58.8883 8.20869 58.2957 6.55261 58.1167 4.82735C57.9999 3.63883 58.089 2.38876 58.7109 1.52485C58.7109 1.52485 56.018 2.82035 56.4005 6.84973C56.5022 7.86337 56.7685 8.85346 57.1889 9.78072L59.7607 15.5291Z" fill="#FD99CB"/>
<path d="M11.1164 36.7254L10.6915 36.5055C11.1069 35.6995 12.3596 35.4115 12.4121 35.3998L12.5173 35.8688C12.2158 35.9355 11.3763 36.2227 11.1164 36.7254Z" fill="white"/>
<path d="M44.6928 36.7254L44.2679 36.5055C44.6833 35.6995 45.936 35.4115 45.9893 35.3998L46.0937 35.8688C45.7922 35.9355 44.9527 36.2227 44.6928 36.7254Z" fill="white"/>
<path d="M59.3358 34.0318H58.8569V34.7623H59.3358V34.0318Z" fill="white"/>
<path d="M56.9787 36.7254L56.5531 36.5055C56.9692 35.6995 58.2212 35.4115 58.2744 35.3998L58.3788 35.8688C58.0773 35.9355 57.2378 36.2227 56.9787 36.7254Z" fill="white"/>
<path d="M55.9012 35.5273H53.8236V36.008H55.9012V35.5273Z" fill="white"/>
<path d="M4.91437 39.9355H1.47388L4.30044 35.9765H1.83523V35.4958H5.23265L2.40682 39.4548H4.91437V39.9355Z" fill="white"/>
<path d="M11.1434 35.6328H10.6646V39.8388H11.1434V35.6328Z" fill="white"/>
<path d="M44.7198 35.6328H44.241V39.8388H44.7198V35.6328Z" fill="white"/>
<path d="M57.005 35.6328H56.5261V39.8388H57.005V35.6328Z" fill="white"/>
<path d="M59.3358 35.6328H58.8569V39.8388H59.3358V35.6328Z" fill="white"/>
<path d="M47.3617 39.1082H46.8828V39.8388H47.3617V39.1082Z" fill="white"/>
<path d="M20.4327 40C20.0231 39.9998 19.6211 39.8896 19.2683 39.6809C18.9155 39.4721 18.6248 39.1724 18.4263 38.8129C18.2278 38.4533 18.1288 38.047 18.1395 37.6361C18.1502 37.2251 18.2702 36.8246 18.4871 36.4759C18.7041 36.1272 19.01 35.8432 19.3732 35.6532C19.7363 35.4633 20.1435 35.3743 20.5525 35.3956C20.9615 35.4168 21.3574 35.5475 21.699 35.7742C22.0407 36.0008 22.3158 36.315 22.4956 36.6843L22.0649 36.8961C21.8875 36.5318 21.5942 36.2373 21.2313 36.0591C20.8684 35.881 20.4567 35.8293 20.0613 35.9124C19.6659 35.9955 19.3093 36.2085 19.0481 36.5177C18.7868 36.827 18.6357 37.2148 18.6187 37.62C18.6016 38.0251 18.7196 38.4244 18.954 38.7546C19.1884 39.0849 19.5258 39.3273 19.9128 39.4435C20.2999 39.5596 20.7144 39.543 21.091 39.3962C21.4675 39.2493 21.7846 38.9807 21.9919 38.6327L22.4022 38.8804C22.1973 39.221 21.9085 39.503 21.5635 39.6991C21.2186 39.8952 20.8291 39.9989 20.4327 40Z" fill="white"/>
<path d="M35.9977 40C35.5882 39.9998 35.1862 39.8896 34.8334 39.6809C34.4806 39.4721 34.1899 39.1724 33.9914 38.8129C33.7929 38.4533 33.6938 38.047 33.7045 37.6361C33.7152 37.2251 33.8353 36.8246 34.0522 36.4759C34.2691 36.1272 34.575 35.8432 34.9382 35.6532C35.3014 35.4633 35.7086 35.3743 36.1176 35.3956C36.5266 35.4168 36.9224 35.5475 37.2641 35.7742C37.6058 36.0008 37.8808 36.315 38.0607 36.6843L37.6307 36.8961C37.4533 36.5316 37.1599 36.2369 36.7968 36.0586C36.4338 35.8803 36.0219 35.8286 35.6263 35.9116C35.2307 35.9947 34.874 36.2077 34.6125 36.5171C34.3511 36.8265 34.1999 37.2146 34.1829 37.6199C34.1659 38.0252 34.2839 38.4247 34.5185 38.7551C34.753 39.0855 35.0906 39.328 35.4778 39.4442C35.865 39.5604 36.2798 39.5437 36.6565 39.3967C37.0332 39.2497 37.3503 38.9809 37.5577 38.6327L37.9687 38.8804C37.7636 39.2212 37.4745 39.5032 37.1293 39.6993C36.7841 39.8954 36.3944 39.999 35.9977 40Z" fill="white"/>
<path d="M62.5428 40C62.1332 39.9999 61.7311 39.8899 61.3782 39.6812C61.0254 39.4725 60.7345 39.1729 60.5359 38.8134C60.3373 38.4538 60.2382 38.0475 60.2488 37.6365C60.2594 37.2256 60.3794 36.8249 60.5963 36.4762C60.8132 36.1275 61.1191 35.8434 61.4823 35.6534C61.8455 35.4633 62.2527 35.3743 62.6617 35.3956C63.0707 35.4168 63.4666 35.5475 63.8083 35.7741C64.15 36.0007 64.4251 36.315 64.605 36.6843L64.1751 36.8961C63.9976 36.5318 63.7043 36.2373 63.3414 36.0591C62.9785 35.881 62.5668 35.8293 62.1714 35.9124C61.776 35.9955 61.4194 36.2085 61.1582 36.5177C60.8969 36.827 60.7458 37.2148 60.7288 37.62C60.7117 38.0251 60.8297 38.4244 61.0641 38.7546C61.2985 39.0849 61.6359 39.3273 62.0229 39.4435C62.41 39.5596 62.8245 39.543 63.2011 39.3962C63.5776 39.2493 63.8947 38.9807 64.1021 38.6327L64.5123 38.8804C64.3074 39.221 64.0185 39.5029 63.6736 39.699C63.3286 39.8951 62.9392 39.9988 62.5428 40Z" fill="white"/>
<path d="M25.666 40C24.352 40 23.2775 38.9661 23.2775 37.6962C23.2775 36.4264 24.3484 35.3917 25.666 35.3917C26.1077 35.3861 26.5422 35.5036 26.9212 35.7312C27.3003 35.9587 27.609 36.2874 27.813 36.6807L27.3859 36.9005C27.222 36.5869 26.9747 36.325 26.6715 36.1439C26.3683 35.9628 26.021 35.8696 25.6682 35.8746C24.6148 35.8746 23.7585 36.6924 23.7585 37.6977C23.7585 38.703 24.6148 39.5208 25.6682 39.5208C25.9943 39.5224 26.3155 39.4416 26.6022 39.2859C26.889 39.1302 27.1322 38.9045 27.3093 38.6298L27.7144 38.8855C27.496 39.2312 27.1931 39.515 26.8346 39.7101C26.4761 39.9051 26.0738 40.005 25.666 40Z" fill="white"/>
<path d="M15.1182 40C14.6643 40 14.2206 39.8649 13.8431 39.6118C13.4657 39.3586 13.1715 38.9988 12.9978 38.5779C12.8241 38.1569 12.7787 37.6937 12.8672 37.2468C12.9558 36.7999 13.1744 36.3894 13.4953 36.0672C13.8163 35.745 14.2253 35.5256 14.6705 35.4367C15.1157 35.3479 15.5772 35.3935 15.9965 35.5678C16.4159 35.7422 16.7744 36.0375 17.0266 36.4163C17.2788 36.7952 17.4134 37.2406 17.4134 37.6962C17.4126 38.307 17.1705 38.8925 16.7403 39.3244C16.31 39.7563 15.7267 39.9992 15.1182 40ZM15.1182 35.8732C14.7591 35.8735 14.4081 35.9806 14.1096 36.1811C13.8111 36.3816 13.5785 36.6664 13.4413 36.9996C13.3041 37.3327 13.2683 37.6993 13.3385 38.0528C13.4088 38.4063 13.5819 38.7311 13.8359 38.9859C14.09 39.2407 14.4136 39.4142 14.7659 39.4844C15.1182 39.5546 15.4833 39.5184 15.8151 39.3804C16.1469 39.2424 16.4304 39.0087 16.63 38.7089C16.8295 38.4092 16.9359 38.0568 16.9359 37.6962C16.9354 37.2127 16.7436 36.7491 16.4028 36.4073C16.062 36.0654 15.6 35.8734 15.1182 35.8732Z" fill="white"/>
<path d="M41.0924 40C40.6409 39.9999 40.1994 39.866 39.8232 39.6152C39.4471 39.3644 39.153 39.0078 38.9778 38.5901C38.8026 38.1723 38.754 37.712 38.8382 37.2666C38.9224 36.8213 39.1357 36.4108 39.4512 36.0865C39.7667 35.7623 40.1705 35.5386 40.6121 35.4436C41.0536 35.3486 41.5133 35.3865 41.9335 35.5525C42.3537 35.7184 42.7158 36.0051 42.9744 36.3767C43.2331 36.7483 43.3768 37.1881 43.3876 37.6413L43.3927 37.8882L39.2842 37.8648C39.3211 38.2605 39.4858 38.6334 39.7532 38.9266C40.0206 39.2197 40.3762 39.4172 40.7657 39.4889C41.1552 39.5605 41.5574 39.5025 41.911 39.3236C42.2647 39.1447 42.5504 38.8548 42.7247 38.4979L43.1547 38.7096C42.967 39.0979 42.6738 39.425 42.3089 39.6533C41.9441 39.8816 41.5224 40.0018 41.0924 40ZM39.3032 37.3841L42.8853 37.4046C42.8165 36.9791 42.5997 36.5918 42.2734 36.3115C41.9471 36.0313 41.5324 35.8761 41.1029 35.8737C40.6734 35.8712 40.257 36.0216 39.9275 36.2981C39.5981 36.5746 39.3769 36.9594 39.3032 37.3841Z" fill="white"/>
<path d="M7.62198 40C7.17038 40 6.7288 39.8663 6.35256 39.6156C5.97631 39.3649 5.6821 39.0083 5.50679 38.5906C5.33147 38.1728 5.28283 37.7124 5.36696 37.2671C5.45109 36.8217 5.66424 36.4112 5.97974 36.0868C6.29523 35.7625 6.69904 35.5388 7.14061 35.4437C7.58217 35.3486 8.04186 35.3865 8.46211 35.5524C8.88237 35.7183 9.24451 36.0051 9.50319 36.3766C9.76187 36.7482 9.9056 37.1881 9.91637 37.6413L9.92221 37.8882L5.81377 37.8648C5.85036 38.2606 6.01486 38.6336 6.28221 38.9269C6.54956 39.2203 6.9051 39.4178 7.29468 39.4895C7.68425 39.5612 8.08649 39.5031 8.44012 39.3241C8.79376 39.1451 9.0794 38.8549 9.25353 38.4979L9.6835 38.7096C9.49582 39.0978 9.20275 39.4248 8.83804 39.6531C8.47332 39.8814 8.05179 40.0016 7.62198 40ZM5.83202 37.3841L9.41486 37.4046C9.3465 36.9786 9.12984 36.5908 8.80341 36.3101C8.47698 36.0294 8.06194 35.8739 7.6321 35.8715C7.20225 35.869 6.78547 36.0197 6.45587 36.2966C6.12627 36.5736 5.90522 36.9589 5.83202 37.3841Z" fill="white"/>
<path d="M27.7838 35.6336H27.3049V39.9333H27.7838V35.6336Z" fill="white"/>
<path d="M50.8905 40C49.5765 40 48.502 38.9661 48.502 37.6962C48.502 36.4264 49.5736 35.3917 50.8905 35.3917C51.3317 35.3863 51.7658 35.5038 52.1445 35.7312C52.5231 35.9587 52.8315 36.2871 53.0353 36.6799L52.6089 36.8997C52.445 36.586 52.1976 36.324 51.8942 36.1429C51.5909 35.9618 51.2434 35.8687 50.8905 35.8739C49.8379 35.8739 48.9808 36.6916 48.9808 37.697C48.9808 38.7023 49.8379 39.5201 50.8905 39.5201C51.2167 39.5218 51.538 39.441 51.8249 39.2853C52.1119 39.1296 52.3551 38.9039 52.5323 38.629L52.9374 38.8848C52.7192 39.2303 52.4166 39.5141 52.0583 39.7093C51.7001 39.9045 51.2981 40.0045 50.8905 40Z" fill="white"/>
<path d="M53.0089 35.6336H52.53V39.8381H53.0089V35.6336Z" fill="white"/>
<path d="M67.7791 40C66.4651 40 65.3905 38.9661 65.3905 37.6962C65.3905 36.4264 66.4621 35.3917 67.7791 35.3917C68.2203 35.3865 68.6543 35.504 69.0329 35.7314C69.4115 35.9588 69.7199 36.2872 69.9238 36.6799L69.4975 36.8997C69.3335 36.586 69.0861 36.324 68.7828 36.1429C68.4794 35.9618 68.132 35.8687 67.7791 35.8739C66.7264 35.8739 65.8694 36.6916 65.8694 37.697C65.8694 38.7023 66.7264 39.52 67.7791 39.52C68.1057 39.5221 68.4275 39.4415 68.7149 39.2856C69.0022 39.1298 69.2458 38.9037 69.423 38.6283L69.8289 38.884C69.6104 39.2301 69.3074 39.5143 68.9486 39.7096C68.5898 39.9049 68.1872 40.0049 67.7791 40Z" fill="white"/>
<path d="M69.8975 35.6336H69.4186V39.8381H69.8975V35.6336Z" fill="white"/>
<path d="M29.3868 35.6336H28.908V39.8381H29.3868V35.6336Z" fill="white"/>
<path d="M54.9281 39.8381H54.4492V35.6387C54.4492 35.5456 54.4266 34.6898 54.9354 34.1527C55.2019 33.8706 55.5588 33.7277 55.9961 33.7277V34.2091C55.6917 34.2091 55.4588 34.2985 55.2836 34.4824C54.8982 34.8876 54.9274 35.6145 54.9274 35.6218V39.8381H54.9281Z" fill="white"/>
<path d="M32.7405 39.8381H32.2616V37.3152C32.2631 37.0718 32.1996 36.8325 32.0778 36.6221C31.956 36.4117 31.7802 36.2378 31.5689 36.1186C30.798 35.69 30.0468 35.9318 29.3358 36.8375L28.9591 36.54C29.454 35.9105 30.4804 34.9638 31.801 35.698C32.0872 35.8588 32.3252 36.0936 32.4905 36.378C32.6557 36.6624 32.742 36.986 32.7405 37.3152V39.8381Z" fill="white"/>
<path d="M49.8633 23.9382C49.8179 23.8781 49.7692 23.8206 49.7173 23.766L44.4942 18.0505L44.4628 17.6219C45.843 17.6219 47.1667 17.0715 48.1427 16.0919C49.1187 15.1122 49.667 13.7835 49.667 12.3981V11.8119C49.667 10.8778 49.4837 9.95292 49.1276 9.08996C48.7715 8.22699 48.2495 7.44289 47.5915 6.7824C46.9335 6.12192 46.1523 5.598 45.2926 5.24054C44.4329 4.88309 43.5114 4.69912 42.5809 4.69912H36.7409C35.9408 4.6997 35.1737 5.01923 34.6083 5.58742C34.043 6.15562 33.7256 6.92596 33.726 7.72903V24.6724C33.7259 24.9882 33.7878 25.301 33.9081 25.5928C34.0285 25.8846 34.205 26.1498 34.4275 26.3731C34.65 26.5964 34.9141 26.7736 35.2048 26.8944C35.4956 27.0152 35.8072 27.0773 36.1218 27.0772H36.1839C36.5091 27.0788 36.8315 27.0158 37.1325 26.892C37.4334 26.7682 37.7071 26.5859 37.9377 26.3557C38.1683 26.1254 38.3513 25.8517 38.4763 25.5503C38.6013 25.2488 38.6657 24.9256 38.6659 24.5991C38.6659 21.9275 38.6659 18.0535 38.6659 18.0535H39.0776L45.7359 26.6383C45.9823 26.9564 46.2978 27.2138 46.6583 27.3908C47.0189 27.5679 47.415 27.6599 47.8164 27.6598C49.5779 27.6598 50.881 25.3531 49.8633 23.9382ZM42.1553 14.6718H38.533V9.0194H42.1553C42.9015 9.02018 43.6169 9.31828 44.1443 9.84821C44.6717 10.3781 44.968 11.0966 44.968 11.8456C44.968 12.5947 44.6717 13.3131 44.1443 13.843C43.6169 14.3729 42.9015 14.671 42.1553 14.6718Z" fill="white"/>
</g>
<defs>
<clipPath id="clip0_1887_2617">
<rect width="73" height="40" fill="white"/>
</clipPath>
</defs>
</svg>
